<?xml version="1.0" encoding="UTF-8" standalone="no"?>
<svg xmlns="http://www.w3.org/2000/svg" xml:space="preserve" viewBox="0 0 512 512"><path fill="#fff" d="M458.846 256.021c0 102.843-83.819 202.443-202.095 202.443H111.45l58.055-101.092h87.242c38.565 0 101.298-30.904 101.298-101.353 0-70.45-62.736-101.401-101.298-101.401H173L116.077 53.525h140.67c118.27 0 202.094 99.658 202.094 202.498z"/><path fill="#ec6607" d="m63.284 165.013 50.498 87.882-50.498 87.883-10.13 17.74 10.13 17.742 48.184 82.174 58.056-101.098 2.057-3.651 57.851-100.79-56.41-98.27-1.44-2.52-55.538-98.578-.514.926-52.246 90.968-5.605 9.822z"/><path fill="#e6e6e6" d="M173.021 154.625h31.78L116.044 53.527zm-3.491 202.753h31.83l-89.836 101.098z" class="st2"/></svg>
