<?xml version="1.0" encoding="UTF-8" standalone="no"?>
<svg
   version="1.1"
   viewBox="0 0 512 512"
   xml:space="preserve"
   id="svg3"
   sodipodi:docname="logo-white.svg"
   inkscape:version="1.3.2 (091e20e, 2023-11-25)"
   xmlns:inkscape="http://www.inkscape.org/namespaces/inkscape"
   xmlns:sodipodi="http://sodipodi.sourceforge.net/DTD/sodipodi-0.dtd"
   xmlns="http://www.w3.org/2000/svg"
   xmlns:svg="http://www.w3.org/2000/svg"><defs
   id="defs3" /><sodipodi:namedview
   id="namedview3"
   pagecolor="#505050"
   bordercolor="#ffffff"
   borderopacity="1"
   inkscape:showpageshadow="0"
   inkscape:pageopacity="0"
   inkscape:pagecheckerboard="1"
   inkscape:deskcolor="#505050"
   inkscape:zoom="0.4609375"
   inkscape:cx="254.91525"
   inkscape:cy="254.91525"
   inkscape:window-width="1840"
   inkscape:window-height="1066"
   inkscape:window-x="0"
   inkscape:window-y="44"
   inkscape:window-maximized="0"
   inkscape:current-layer="svg3" />
<style
   type="text/css"
   id="style1">
	.st0{fill:#0E7599;}
	.st1{fill:#EC6607;}
	.st2{fill:#0B5C7A;}
</style>
<g
   id="g1"
   transform="matrix(0.79237288,0,0,0.79237288,53.152545,53.148765)"><path
     class="st0"
     d="m 512,256.03202 c 0,129.79207 -105.78258,255.4904 -255.05153,255.4904 H 73.572566 L 146.84042,383.94047 h 110.10277 c 48.67028,0 127.84176,-39.00292 127.84176,-127.91196 0,-88.91081 -79.17499,-127.97167 -127.84176,-127.97167 H 151.25191 L 79.411243,0.47490462 H 256.94143 c 149.26195,0 255.05155,125.77205538 255.05155,255.56062538 z"
     fill="#fff"
     stroke-width="0.648978"
     style="fill:#ffffff"
     id="path1" /><polygon
     class="st1"
     transform="matrix(0.64897793,0,0,0.64897793,-392.69655,-392.99857)"
     points="624.8,823.1 723,994 624.8,1164.9 605.1,1199.4 624.8,1233.9 718.5,1393.7 831.4,1197.1 835.4,1190 947.9,994 838.2,802.9 835.4,798 727.4,606.3 726.4,608.1 624.8,785 613.9,804.1 "
     id="polygon1" /><polygon
     class="st2"
     transform="matrix(0.64897793,0,0,0.64897793,-392.69655,-392.99857)"
     points="838.2,802.9 900,802.9 727.4,606.3 "
     fill="#e5e5e5"
     style="fill:#e6e6e6"
     id="polygon2" /><polygon
     class="st2"
     transform="matrix(0.64897793,0,0,0.64897793,-392.62633,-392.94591)"
     points="831.3,1197.1 893.2,1197.1 718.5,1393.7 "
     fill="#e5e5e5"
     style="fill:#e6e6e6"
     id="polygon3" /></g>
</svg>
