<?xml version="1.0" encoding="UTF-8" standalone="no"?>
<svg
   version="1.1"
   viewBox="0 0 512 512"
   xml:space="preserve"
   id="svg3"
   sodipodi:docname="favicon.svg"
   inkscape:version="1.3.2 (091e20e, 2023-11-25)"
   xmlns:inkscape="http://www.inkscape.org/namespaces/inkscape"
   xmlns:sodipodi="http://sodipodi.sourceforge.net/DTD/sodipodi-0.dtd"
   xmlns="http://www.w3.org/2000/svg"
   xmlns:svg="http://www.w3.org/2000/svg"><defs
   id="defs3" /><sodipodi:namedview
   id="namedview3"
   pagecolor="#505050"
   bordercolor="#ffffff"
   borderopacity="1"
   inkscape:showpageshadow="0"
   inkscape:pageopacity="0"
   inkscape:pagecheckerboard="1"
   inkscape:deskcolor="#505050"
   inkscape:zoom="0.4609375"
   inkscape:cx="254.91525"
   inkscape:cy="254.91525"
   inkscape:window-width="1752"
   inkscape:window-height="972"
   inkscape:window-x="0"
   inkscape:window-y="44"
   inkscape:window-maximized="0"
   inkscape:current-layer="svg3" />
<style
   type="text/css"
   id="style1">
	.st0{fill:#0E7599;}
	.st1{fill:#EC6607;}
	.st2{fill:#0B5C7A;}
</style>
<path
   class="st0"
   d="m 512,256.03318 c 0,129.79 -105.78,255.49 -255.04,255.49 H 73.59 l 73.267,-127.58 h 110.1 c 48.669,0 127.84,-39.003 127.84,-127.91 0,-88.909 -79.173,-127.97 -127.84,-127.97 h -105.69 l -71.84,-127.58 h 177.53 c 149.26,0 255.04,125.77 255.04,255.56 z"
   stroke-width="0.64896"
   id="path1" /><polygon
   class="st1"
   transform="matrix(0.64896,0,0,0.64896,-392.68,-392.98682)"
   points="831.4,1197.1 835.4,1190 947.9,994 838.2,802.9 835.4,798 727.4,606.3 726.4,608.1 624.8,785 613.9,804.1 624.8,823.1 723,994 624.8,1164.9 605.1,1199.4 624.8,1233.9 718.5,1393.7 "
   id="polygon1" /><polygon
   class="st2"
   transform="matrix(0.64896,0,0,0.64896,-392.68,-392.98682)"
   points="838.2,802.9 900,802.9 727.4,606.3 "
   id="polygon2" /><polygon
   class="st2"
   transform="matrix(0.64896,0,0,0.64896,-392.62,-392.92682)"
   points="831.3,1197.1 893.2,1197.1 718.5,1393.7 "
   id="polygon3" />
</svg>
